<svg xmlns="http://www.w3.org/2000/svg" viewBox="0 0 32 32">
  <defs>
    <linearGradient id="g" x1="0" y1="0" x2="1" y2="1">
      <stop offset="0%" stop-color="#4ade80"/>
      <stop offset="50%" stop-color="#22d3ee"/>
      <stop offset="100%" stop-color="#facc15"/>
    </linearGradient>
  </defs>
  <rect width="32" height="32" rx="8" fill="url(#g)" opacity="0.15"/>
  <rect width="32" height="32" rx="8" stroke="url(#g)" stroke-width="1.5" opacity="0.5"/>
  <g stroke-linecap="round" fill="none">
    <line x1="21" y1="7" x2="11" y2="7" stroke="#4ade80" stroke-width="1.5" opacity="0.8"/>
    <circle cx="21" cy="7" r="2" fill="#4ade80" opacity="0.9"/>
    <circle cx="11" cy="7" r="2" fill="#22d3ee" opacity="0.9"/>
    <line x1="11" y1="11" x2="21" y2="11" stroke="#22d3ee" stroke-width="1.5" opacity="0.8"/>
    <circle cx="11" cy="11" r="2" fill="#22d3ee" opacity="0.9"/>
    <circle cx="21" cy="11" r="2" fill="#4ade80" opacity="0.9"/>
    <line x1="21" y1="15" x2="11" y2="15" stroke="#4ade80" stroke-width="1.5" opacity="0.8"/>
    <circle cx="21" cy="15" r="2" fill="#4ade80" opacity="0.9"/>
    <circle cx="11" cy="15" r="2" fill="#22d3ee" opacity="0.9"/>
    <line x1="11" y1="19" x2="21" y2="19" stroke="#22d3ee" stroke-width="1.5" opacity="0.8"/>
    <circle cx="11" cy="19" r="2" fill="#22d3ee" opacity="0.9"/>
    <circle cx="21" cy="19" r="2" fill="#4ade80" opacity="0.9"/>
    <line x1="21" y1="23" x2="11" y2="23" stroke="#4ade80" stroke-width="1.5" opacity="0.8"/>
    <circle cx="21" cy="23" r="2" fill="#4ade80" opacity="0.9"/>
    <circle cx="11" cy="23" r="2" fill="#22d3ee" opacity="0.9"/>
  </g>
  <circle cx="16" cy="15" r="3" fill="#facc15" opacity="0.3"/>
</svg>
